<?xml version="1.0" encoding="UTF-8"?>
<svg width="420px" height="60px" viewBox="0 0 420 60" version="1.1" xmlns="http://www.w3.org/2000/svg" xmlns:xlink="http://www.w3.org/1999/xlink">
    <!-- Generator: Sketch 52.5 (67469) - http://www.bohemiancoding.com/sketch -->
    <title>Artboard</title>
    <desc>Created with Sketch.</desc>
    <defs>
        <path d="M29.7739726,60 C46.2176836,60 59.5479452,46.5685425 59.5479452,30 C59.5479452,28.0735534 58.6849315,23.0434783 56.9589041,19.1304348 C55.2328767,15.2173913 63,6.95652174 63,6.95652174 L47.8972603,6.95652174 L52.6438356,0 L29.7739726,0 C13.3302616,0 0,13.4314575 0,30 C0,46.5685425 13.3302616,60 29.7739726,60 Z" id="path-1"></path>
        <path d="M0,16.5217391 C0,16.5217391 9.06164384,21.7391304 3.88356164,37.826087 C3.88356164,37.826087 11.2191781,33.0434783 19.4178082,36.0869565 C27.6164384,39.1304348 34.0890411,39.1304348 34.0890411,39.1304348 C34.0890411,39.1304348 37.8075145,29.2325345 32.3630137,18.2608696 C31.5,16.5217391 38.4041096,6.52173913 39.6986301,6.52173913 L23.7328767,6.52173913 L27.6164384,0 L10.3561644,0 L0,16.5217391 Z" id="path-3"></path>
        <path d="M0.431506849,11.3043478 C0.431506849,11.3043478 6.90410959,15.2173913 5.17808219,29.5652174 C5.17808219,29.5652174 12.9452055,32.6086957 19.8493151,32.6086957 C19.8493151,32.6086957 23.4688829,20.4705684 17.6917808,11.7391304 C16.8287671,10.4347826 22.4383562,0.869565217 24.5958904,1.42108547e-14 C24.5958904,1.42108547e-14 8.19863014,1.42108547e-14 8.19863014,1.42108547e-14 L0.431506849,11.3043478 Z" id="path-5"></path>
    </defs>
    <g id="Artboard" stroke="none" stroke-width="1" fill="none" fill-rule="evenodd">
        <g id="logo">
            <g id="logomark">
                <mask id="mask-2" fill="white">
                    <use xlink:href="#path-1"></use>
                </mask>
                <use id="1st-(segment)" fill="#CE0F69" xlink:href="#path-1"></use>
                <g id="inner-shapes" mask="url(#mask-2)">
                    <g transform="translate(25.027397, 0.000000)">
                        <mask id="mask-4" fill="white">
                            <use xlink:href="#path-3"></use>
                        </mask>
                        <use id="2nd-(segment)" stroke="none" fill="#FF9E1B" fill-rule="evenodd" xlink:href="#path-3"></use>
                        <g id="3rd-(segment)" stroke="none" stroke-width="1" fill="none" fill-rule="evenodd" mask="url(#mask-4)">
                            <g transform="translate(14.671233, 6.956522)">
                                <mask id="mask-6" fill="white">
                                    <use xlink:href="#path-5"></use>
                                </mask>
                                <use id="segment" stroke="none" fill="#FBE122" fill-rule="evenodd" xlink:href="#path-5"></use>
                                <path d="M-5.60958904,20.0000002 C-5.60958904,20.000001 19.4178082,-6.95652169 19.4178082,-6.95652169 C19.4178082,-6.95652169 13.7460965,-7.02376932 12.9452055,-6.95652174 L-0.431506849,11.3043478 C-0.431506849,11.3043478 -5.60958904,20.0000012 -5.60958904,20.0000002 Z" id="shadow" stroke="none" fill-opacity="0.25" fill="#B34100" fill-rule="evenodd" mask="url(#mask-6)"></path>
                            </g>
                        </g>
                    </g>
                </g>
            </g>
            <g id="logotype" transform="translate(77.000000, 6.000000)" fill="#4A4A4A">
                <path d="M0.458,33.842 C0.458,33.842 4.076,38.648 11.366,38.648 C17.09,38.648 21.41,35.516 21.41,30.656 C21.41,21.53 6.506,22.664 6.506,17.48 C6.506,15.32 8.504,14.24 11.582,14.24 C13.256,14.24 15.686,14.942 15.686,16.562 L15.686,17.912 L20.384,17.912 L20.384,15.32 C20.384,11.162 14.714,10.028 11.42,10.028 C5.858,10.028 1.268,12.458 1.268,17.696 C1.268,26.498 16.172,25.958 16.172,30.872 C16.172,33.248 13.958,34.382 11.42,34.382 C6.398,34.382 3.158,30.332 3.158,30.332 L0.458,33.842 Z M26.398,28.172 C26.398,35.408 29.53,38.648 35.686,38.648 C41.086,38.648 44.596,35.084 45.73,32.384 L45.838,32.384 C45.838,32.384 45.784,33.086 45.784,33.95 L45.784,34.976 C45.784,36.92 46.918,38 49.24,38 L54.262,38 L54.262,33.518 L52.048,33.518 C51.292,33.518 50.86,33.14 50.86,32.33 L50.86,10.676 L45.622,10.676 L45.622,23.474 C45.622,28.874 42.328,33.788 36.712,33.788 C32.392,33.788 31.636,30.764 31.636,26.984 L31.636,14.024 C31.636,11.702 30.61,10.676 28.126,10.676 L22.996,10.676 L22.996,15.158 L25.21,15.158 C25.966,15.158 26.398,15.536 26.398,16.346 L26.398,28.172 Z M58.44,38 L63.678,38 L63.678,25.202 C63.678,23.852 63.786,22.61 64.164,21.53 C65.244,17.588 68.592,14.834 72.804,14.834 C77.178,14.834 77.934,17.858 77.934,21.692 L77.934,34.544 C77.934,36.974 78.96,38 81.39,38 L86.574,38 L86.574,33.518 L84.36,33.518 C83.604,33.518 83.172,33.14 83.172,32.33 L83.172,20.504 C83.172,13.538 80.256,10.028 73.776,10.028 C67.836,10.028 64.596,13.916 63.516,16.292 L63.408,16.292 C63.408,16.292 63.516,15.59 63.516,14.726 L63.516,13.7 C63.516,11.702 62.382,10.676 60.06,10.676 L55.038,10.676 L55.038,15.158 L57.252,15.158 C58.008,15.158 58.44,15.536 58.44,16.346 L58.44,38 Z M87.7279999,34.004 C87.7279999,34.004 90.8599999,38.648 97.6639999,38.648 C102.794,38.648 106.736,35.678 106.736,31.358 C106.736,22.448 91.1839999,24.122 91.1839999,17.21 C91.1839999,14.132 93.7759999,12.566 98.1499999,12.566 C100.04,12.566 103.388,13.43 103.388,15.698 L103.388,16.994 L105.656,16.994 L105.656,14.942 C105.656,11.378 100.364,10.352 98.0419999,10.352 C92.6959999,10.352 88.8079999,12.728 88.8079999,17.372 C88.8079999,26.066 104.36,24.554 104.36,31.358 C104.36,34.706 101.174,36.434 97.7179999,36.434 C92.1559999,36.434 89.3479999,32.33 89.3479999,32.33 L87.7279999,34.004 Z M109.888,24.554 C109.888,33.14 116.206,38.648 123.82,38.648 C129.652,38.648 133.432,34.922 133.432,34.922 L132.19,33.032 C132.19,33.032 129.004,36.434 123.82,36.434 C117.556,36.434 112.264,31.952 112.264,24.122 L133.918,24.122 C133.918,24.122 134.026,23.258 134.026,22.664 C134.026,16.13 130.354,10.352 123.01,10.352 C116.098,10.352 109.888,15.428 109.888,24.554 L109.888,24.554 Z M112.426,22.016 C113.398,15.698 117.988,12.458 122.956,12.458 C127.438,12.458 131.38,15.428 131.65,22.016 L112.426,22.016 Z M140.094,38 L142.362,38 L142.362,26.336 C142.362,24.554 142.578,22.556 143.172,20.666 C144.36,16.67 147.006,13.106 151.218,13.106 C151.812,13.106 152.46,13.214 152.46,13.214 L152.46,10.946 C152.46,10.946 151.704,10.784 150.894,10.784 C146.628,10.784 143.712,13.916 142.362,18.074 L142.254,18.074 C142.254,18.074 142.362,17.102 142.362,15.86 L142.362,13.97 C142.362,11.918 141.444,11 139.23,11 L136.584,11 L136.584,13.052 L138.906,13.052 C139.662,13.052 140.094,13.43 140.094,14.24 L140.094,38 Z M156.854,4.142 L159.338,4.142 L159.338,0.2 L156.854,0.2 L156.854,4.142 Z M157.178,34.868 C157.178,37.082 158.096,38 160.31,38 L162.956,38 L162.956,35.948 L160.634,35.948 C159.878,35.948 159.446,35.57 159.446,34.76 L159.446,14.132 C159.446,11.918 158.528,11 156.314,11 L153.668,11 L153.668,13.052 L155.99,13.052 C156.746,13.052 157.178,13.43 157.178,14.24 L157.178,34.868 Z M165.244,24.554 C165.244,33.14 171.562,38.648 179.176,38.648 C185.008,38.648 188.788,34.922 188.788,34.922 L187.546,33.032 C187.546,33.032 184.36,36.434 179.176,36.434 C172.912,36.434 167.62,31.952 167.62,24.122 L189.274,24.122 C189.274,24.122 189.382,23.258 189.382,22.664 C189.382,16.13 185.71,10.352 178.366,10.352 C171.454,10.352 165.244,15.428 165.244,24.554 L165.244,24.554 Z M167.782,22.016 C168.754,15.698 173.344,12.458 178.312,12.458 C182.794,12.458 186.736,15.428 187.006,22.016 L167.782,22.016 Z M192.318,34.004 C192.318,34.004 195.45,38.648 202.254,38.648 C207.384,38.648 211.326,35.678 211.326,31.358 C211.326,22.448 195.774,24.122 195.774,17.21 C195.774,14.132 198.366,12.566 202.74,12.566 C204.63,12.566 207.978,13.43 207.978,15.698 L207.978,16.994 L210.246,16.994 L210.246,14.942 C210.246,11.378 204.954,10.352 202.632,10.352 C197.286,10.352 193.398,12.728 193.398,17.372 C193.398,26.066 208.95,24.554 208.95,31.358 C208.95,34.706 205.764,36.434 202.308,36.434 C196.746,36.434 193.938,32.33 193.938,32.33 L192.318,34.004 Z M216.908,28.01 C216.908,37.136 223.874,38.216 227.33,38.216 C228.464,38.216 229.166,38.108 229.166,38.108 L229.166,33.464 C229.166,33.464 228.68,33.572 227.924,33.572 C225.926,33.572 222.146,32.87 222.146,27.416 L222.146,14.888 L228.68,14.888 L228.68,10.676 L222.146,10.676 L222.146,3.17 L217.016,3.17 L217.016,10.676 L213.344,10.676 L213.344,14.888 L216.908,14.888 L216.908,28.01 Z M234.1,38 L239.338,38 L239.338,26.822 C239.338,25.148 239.5,23.474 239.986,21.908 C241.228,17.858 244.306,15.482 247.654,15.482 C248.518,15.482 249.22,15.644 249.22,15.644 L249.22,10.46 C249.22,10.46 248.518,10.352 247.816,10.352 C243.604,10.352 240.472,13.484 239.176,17.48 L239.068,17.48 C239.068,17.48 239.176,16.67 239.176,15.59 L239.176,13.862 C239.176,11.648 238.042,10.676 235.666,10.676 L230.698,10.676 L230.698,15.158 L232.912,15.158 C233.668,15.158 234.1,15.536 234.1,16.346 L234.1,38 Z M249.132,30.332 C249.132,35.786 253.722,38.648 258.42,38.648 C264.954,38.648 267.114,33.248 267.114,33.248 L267.222,33.248 C267.222,33.248 267.114,33.95 267.114,34.868 C267.114,36.812 268.086,38 270.516,38 L275.43,38 L275.43,33.518 L273.216,33.518 C272.46,33.518 272.028,33.14 272.028,32.33 L272.028,20.72 C272.028,14.672 269.652,10.028 260.796,10.028 C258.15,10.028 251.346,10.676 251.346,15.158 L251.346,17.858 L256.26,17.858 L256.26,16.292 C256.26,14.51 259.446,14.186 260.742,14.186 C265.008,14.186 266.79,15.914 266.79,20.72 L266.79,20.99 L265.602,20.99 C261.012,20.99 249.132,21.53 249.132,30.332 L249.132,30.332 Z M254.424,30.062 C254.424,25.04 261.552,24.824 265.494,24.824 L266.844,24.824 L266.844,25.742 C266.844,29.792 263.982,34.436 259.554,34.436 C256.098,34.436 254.424,32.276 254.424,30.062 L254.424,30.062 Z M285.656,38 L291.704,38 L300.02,16.238 C300.344,15.428 300.884,15.158 301.802,15.158 L302.342,15.158 L302.342,10.676 L299.804,10.676 C297.428,10.676 296.456,11.27 295.646,13.43 L289.814,29.144 C289.274,30.656 288.842,32.708 288.842,32.708 L288.734,32.708 C288.734,32.708 288.302,30.656 287.762,29.144 L281.876,13.43 C281.066,11.27 280.148,10.676 277.718,10.676 L275.018,10.676 L275.018,15.158 L275.558,15.158 C276.422,15.158 276.908,15.428 277.232,16.238 L285.656,38 Z M302.848,24.338 C302.848,32.438 308.734,38.648 317.374,38.648 C323.854,38.648 327.904,34.652 327.904,34.652 L325.636,30.926 C325.636,30.926 322.342,34.112 317.644,34.112 C312.784,34.112 308.572,30.818 308.248,24.986 L328.174,24.986 C328.174,24.986 328.336,23.528 328.336,22.826 C328.336,15.752 324.232,10.028 316.564,10.028 C308.788,10.028 302.848,15.644 302.848,24.338 L302.848,24.338 Z M308.464,21.152 C309.274,16.616 312.514,14.186 316.51,14.186 C319.912,14.186 322.774,16.616 322.936,21.152 L308.464,21.152 Z M333.594,34.544 C333.594,36.974 334.62,38 337.05,38 L342.234,38 L342.234,33.518 L340.02,33.518 C339.264,33.518 338.832,33.14 338.832,32.33 L338.832,3.332 C338.832,0.902 337.806,-0.124 335.376,-0.124 L330.192,-0.124 L330.192,4.358 L332.406,4.358 C333.162,4.358 333.594,4.736 333.594,5.546 L333.594,34.544 Z" id="sunseriestravel-2"></path>
            </g>
        </g>
    </g>
</svg>